<mxfile host="www.draw.io" modified="2019-11-02T18:26:51.093Z" agent="Mozilla/5.0 (Windows NT 10.0; Win64; x64) AppleWebKit/537.36 (KHTML, like Gecko) Chrome/78.0.3904.70 Safari/537.36" etag="oThuU4CWCe-ZXCTT0cua" version="12.1.9" type="github" pages="1">
  <diagram id="qo_7fel1pn-u5pin100x" name="Page-1">
    <mxGraphModel dx="2128" dy="548" grid="1" gridSize="10" guides="1" tooltips="1" connect="1" arrows="1" fold="1" page="1" pageScale="1" pageWidth="850" pageHeight="1100" math="0" shadow="0">
      <root>
        <mxCell id="0"/>
        <mxCell id="1" parent="0"/>
        <mxCell id="7ddosHhxyWSgjfZ41KvL-2" value="Chat App" style="strokeWidth=1;shadow=0;dashed=0;align=center;html=1;shape=mxgraph.mockup.containers.window;align=left;verticalAlign=top;spacingLeft=8;strokeColor2=#008cff;strokeColor3=#c4c4c4;fontColor=#666666;fillColor=#ffffff;mainText=;fontSize=17;labelBackgroundColor=none;" parent="1" vertex="1">
          <mxGeometry x="120" y="90" width="550" height="380" as="geometry"/>
        </mxCell>
        <mxCell id="7ddosHhxyWSgjfZ41KvL-3" value="" style="strokeWidth=1;shadow=0;dashed=0;align=center;html=1;shape=mxgraph.mockup.containers.marginRect2;rectMarginLeft=67;strokeColor=#666666;fillColor=#ffffff;gradientColor=none;" parent="1" vertex="1">
          <mxGeometry x="120" y="120" width="550" height="350" as="geometry"/>
        </mxCell>
        <mxCell id="7ddosHhxyWSgjfZ41KvL-4" value="User1" style="strokeColor=inherit;fillColor=inherit;gradientColor=inherit;strokeWidth=1;shadow=0;dashed=0;align=center;html=1;shape=mxgraph.mockup.containers.rrect;rSize=0;fontSize=17;fontColor=#666666;" parent="7ddosHhxyWSgjfZ41KvL-3" vertex="1">
          <mxGeometry width="60" height="25" relative="1" as="geometry">
            <mxPoint y="10" as="offset"/>
          </mxGeometry>
        </mxCell>
        <mxCell id="7ddosHhxyWSgjfZ41KvL-5" value="User2" style="strokeWidth=1;shadow=0;dashed=0;align=center;html=1;shape=mxgraph.mockup.containers.rrect;rSize=0;fontSize=17;fontColor=#ffffff;strokeColor=#008cff;fillColor=#008cff;" parent="7ddosHhxyWSgjfZ41KvL-3" vertex="1">
          <mxGeometry width="60" height="25" relative="1" as="geometry">
            <mxPoint y="40" as="offset"/>
          </mxGeometry>
        </mxCell>
        <mxCell id="7ddosHhxyWSgjfZ41KvL-6" value="User3" style="strokeColor=inherit;fillColor=inherit;gradientColor=inherit;strokeWidth=1;shadow=0;dashed=0;align=center;html=1;shape=mxgraph.mockup.containers.rrect;rSize=0;fontSize=17;fontColor=#666666;" parent="7ddosHhxyWSgjfZ41KvL-3" vertex="1">
          <mxGeometry width="60" height="25" relative="1" as="geometry">
            <mxPoint y="70" as="offset"/>
          </mxGeometry>
        </mxCell>
        <mxCell id="7ddosHhxyWSgjfZ41KvL-7" value="" style="strokeWidth=1;shadow=0;dashed=0;align=center;html=1;shape=mxgraph.mockup.containers.leftButton;rSize=5;strokeColor=#008cff;fillColor=#008cff;resizeHeight=1;movable=0;deletable=0;" parent="7ddosHhxyWSgjfZ41KvL-3" vertex="1">
          <mxGeometry width="7" height="350" relative="1" as="geometry">
            <mxPoint x="60" as="offset"/>
          </mxGeometry>
        </mxCell>
        <mxCell id="7ddosHhxyWSgjfZ41KvL-8" value="Hi there" style="rounded=0;whiteSpace=wrap;html=1;" parent="7ddosHhxyWSgjfZ41KvL-3" vertex="1">
          <mxGeometry x="70" y="115" width="150" height="60" as="geometry"/>
        </mxCell>
        <mxCell id="7ddosHhxyWSgjfZ41KvL-9" value="Hi there" style="rounded=0;whiteSpace=wrap;html=1;" parent="7ddosHhxyWSgjfZ41KvL-3" vertex="1">
          <mxGeometry x="305" y="20" width="180" height="60" as="geometry"/>
        </mxCell>
        <mxCell id="7ddosHhxyWSgjfZ41KvL-10" value="" style="verticalLabelPosition=bottom;shadow=0;dashed=0;align=center;html=1;verticalAlign=top;strokeWidth=1;shape=mxgraph.mockup.navigation.scrollBar;fillColor=#ffffff;strokeColor=#999999;barPos=20;fillColor2=#99ddff;strokeColor2=none;direction=north;" parent="7ddosHhxyWSgjfZ41KvL-3" vertex="1">
          <mxGeometry x="530" width="20" height="350" as="geometry"/>
        </mxCell>
        <mxCell id="7ddosHhxyWSgjfZ41KvL-11" value="" style="rounded=0;whiteSpace=wrap;html=1;" parent="7ddosHhxyWSgjfZ41KvL-3" vertex="1">
          <mxGeometry x="240" y="260" width="290" height="90" as="geometry"/>
        </mxCell>
        <mxCell id="7ddosHhxyWSgjfZ41KvL-12" value="Line 1" style="strokeWidth=1;shadow=0;dashed=0;align=center;html=1;shape=mxgraph.mockup.text.textBox;fillColor=#ffffff;fontColor=#666666;align=left;fontSize=17;spacingLeft=4;spacingTop=-3;strokeColor=#666666;mainText=" parent="7ddosHhxyWSgjfZ41KvL-3" vertex="1">
          <mxGeometry x="250" y="270" width="265" height="30" as="geometry"/>
        </mxCell>
        <mxCell id="7ddosHhxyWSgjfZ41KvL-13" value="Send" style="strokeWidth=1;shadow=0;dashed=0;align=center;html=1;shape=mxgraph.mockup.buttons.button;strokeColor=#666666;fontColor=#ffffff;mainText=;buttonStyle=round;fontSize=17;fontStyle=1;fillColor=#008cff;whiteSpace=wrap;" parent="7ddosHhxyWSgjfZ41KvL-3" vertex="1">
          <mxGeometry x="360" y="310" width="95" height="35" as="geometry"/>
        </mxCell>
        <mxCell id="qUZc9HU691MnbSQqtdMQ-3" value="&lt;span style=&quot;font-size: 18px&quot;&gt;POST /messages&lt;/span&gt;" style="text;html=1;resizable=0;points=[];autosize=1;align=left;verticalAlign=top;spacingTop=-4;" vertex="1" parent="1">
          <mxGeometry x="750" y="295" width="160" height="20" as="geometry"/>
        </mxCell>
        <mxCell id="qUZc9HU691MnbSQqtdMQ-5" value="" style="endArrow=none;html=1;" edge="1" parent="1" target="7ddosHhxyWSgjfZ41KvL-5">
          <mxGeometry width="50" height="50" relative="1" as="geometry">
            <mxPoint x="-110" y="310" as="sourcePoint"/>
            <mxPoint x="90" y="180" as="targetPoint"/>
          </mxGeometry>
        </mxCell>
        <mxCell id="qUZc9HU691MnbSQqtdMQ-6" value="&lt;font style=&quot;font-size: 18px&quot;&gt;On click, GET /conversations/:id&lt;/font&gt;" style="text;html=1;resizable=0;points=[];autosize=1;align=left;verticalAlign=top;spacingTop=-4;" vertex="1" parent="1">
          <mxGeometry x="-182" y="310" width="270" height="20" as="geometry"/>
        </mxCell>
        <mxCell id="qUZc9HU691MnbSQqtdMQ-8" value="&lt;font style=&quot;font-size: 18px&quot;&gt;New chat is POST /conversations&lt;br&gt;&lt;/font&gt;" style="text;html=1;resizable=0;points=[];autosize=1;align=left;verticalAlign=top;spacingTop=-4;" vertex="1" parent="1">
          <mxGeometry x="182" y="532" width="280" height="20" as="geometry"/>
        </mxCell>
        <mxCell id="qUZc9HU691MnbSQqtdMQ-10" value="" style="endArrow=none;html=1;" edge="1" parent="1" source="7ddosHhxyWSgjfZ41KvL-13">
          <mxGeometry width="50" height="50" relative="1" as="geometry">
            <mxPoint x="740" y="420" as="sourcePoint"/>
            <mxPoint x="820" y="330" as="targetPoint"/>
          </mxGeometry>
        </mxCell>
      </root>
    </mxGraphModel>
  </diagram>
</mxfile>
